<svg xmlns="http://www.w3.org/2000/svg" viewBox="0 0 89.63 154.74"><defs><style>.cls-1{fill:#3da37e;}</style></defs><g id="Layer_3" data-name="Layer 3"><path class="cls-1" d="M576.76,723.61l-18.12,25,15.1-1.17-19.45,10.36,9.82,11.54c-17,3.09-22.14-2.43-26.47,7.58s-10.33,11-10.33,11c43.32-67.45-5.56-118.7-6.63-119.81,22.64,42.8,16.85,79.41,13.53,92.58a6.26,6.26,0,0,1-6.7,4.71l-18.09-1.79,16-7.18C497.78,748.45,496,729.31,496,729.31c6.76,3.12,23,3.86,23,3.86-27.58-11.48-31.69-49.09-31.69-49.09l22.8,7.17S499.63,679,491.53,669.14s.53-36,.53-36c70,3.72,63.6,61.84,63.6,61.84,8.63-15,2.65-31.25,2.43-31.85,24.81,28.23,19.85,49.67,14.15,56.33s-5.6,10.21-5.6,10.21Z" transform="translate(-487.25 -633.12)"/></g></svg>